# xmcd
#
# Track frame offsets: 
#        150
#        14045
#        29877
#        43312
#        58555
#        76140
#        90497
#        105885
#        118062
#        131940
#        148017
#        159537
#
# Disc length: 2255 seconds
#
# Revision: 0
# Processed by: cddbd v1.5.2PL0 Copyright (c) Steve Scherf et al.
# Submitted via: ExactAudioCopy v1.0b3
#
DISCID=a608cd0c
DTITLE=越路吹雪 - 越路吹雪／アダモを歌う  TOCT-8626
DYEAR=1900
DGENRE=Blues
TTITLE0=雪が降る 
TTITLE1=サン・トワ・マミー 
TTITLE2=ろくでなし
TTITLE3=夢の中に君がいる 
TTITLE4=明日は月の上で
TTITLE5=一寸失礼
TTITLE6=夜のメロディー 
TTITLE7=浜辺の娘 
TTITLE8=生命なんかいらない（はかなきこの世） 
TTITLE9=失せし恋 
TTITLE10=もしいつの日か 
TTITLE11=どうぞおねがい 
EXTD=
EXTT0=
EXTT1=
EXTT2=
EXTT3=
EXTT4=
EXTT5=
EXTT6=
EXTT7=
EXTT8=
EXTT9=
EXTT10=
EXTT11=
PLAYORDER=
